<?xml version="1.0" standalone="no"?>
<!DOCTYPE svg PUBLIC "-//W3C//DTD SVG 20010904//EN"
 "http://www.w3.org/TR/2001/REC-SVG-20010904/DTD/svg10.dtd">
<svg version="1.0" xmlns="http://www.w3.org/2000/svg"
 width="193.000000pt" height="232.000000pt" viewBox="0 0 193.000000 232.000000"
 preserveAspectRatio="xMidYMid meet">

<g transform="translate(0.000000,232.000000) scale(0.100000,-0.100000)"
fill="#000000" stroke="none">
<path d="M653 2263 l-313 -3 0 -470 0 -470 -125 0 -125 0 0 -190 0 -190 125 0
125 0 0 -125 0 -125 -125 0 -125 0 0 -145 0 -145 120 0 120 0 0 -160 0 -160
128 0 c71 0 177 -3 235 -7 l107 -6 0 171 0 172 230 0 230 0 0 145 0 145 -230
0 -230 0 0 120 0 120 189 0 c203 0 289 11 402 52 162 60 301 170 372 298 58
106 81 203 81 350 -1 107 -4 136 -26 202 -33 100 -74 162 -153 237 -71 66
-185 128 -300 162 -80 24 -185 28 -712 22z m535 -398 c66 -20 131 -70 162
-125 22 -39 25 -57 25 -136 0 -83 -2 -94 -30 -140 -32 -51 -105 -103 -175
-126 -19 -6 -110 -13 -202 -15 l-168 -5 0 281 0 281 168 0 c122 0 183 -4 220
-15z"/>
</g>
</svg>
